<?xml version="1.0" encoding="utf-8"?>
<!-- Generator: Adobe Illustrator 25.3.1, SVG Export Plug-In . SVG Version: 6.00 Build 0)  -->
<svg version="1.1" id="Layer_1" xmlns="http://www.w3.org/2000/svg" xmlns:xlink="http://www.w3.org/1999/xlink" x="0px" y="0px"
	 viewBox="0 0 987.48 763.05" style="enable-background:new 0 0 987.48 763.05;" xml:space="preserve">
<style type="text/css">
	.st0{fill:url(#SVGID_1_);}
	.st1{fill:url(#SVGID_2_);}
	.st2{fill:url(#SVGID_3_);}
</style>
<g>
	<g>
		<linearGradient id="SVGID_1_" gradientUnits="userSpaceOnUse" x1="383.4657" y1="711.7165" x2="383.4657" y2="-9.094947e-13">
			<stop  offset="0" style="stop-color:#FFFFFF;stop-opacity:0"/>
			<stop  offset="1" style="stop-color:#7AA5BA"/>
		</linearGradient>
		<path class="st0" d="M231.86,711.72c0.2-1.19,20.05-120.18,47.92-237.64C336.76,233.92,370.7,0,383.47,0
			c12.77,0,46.71,233.92,103.69,474.08c27.87,117.46,47.72,236.45,47.91,237.64c0,0-30.18-119.45-58.02-236.78
			c-50.29-211.96-82.2-327.01-93.58-327.01c-11.38,0-43.29,115.06-93.58,327.03C262.04,592.29,231.86,711.72,231.86,711.72z"/>
	</g>
	<g>
		<linearGradient id="SVGID_2_" gradientUnits="userSpaceOnUse" x1="514.1059" y1="763.0547" x2="514.1059" y2="194.6943">
			<stop  offset="0" style="stop-color:#FFFFFF;stop-opacity:0"/>
			<stop  offset="1" style="stop-color:#7AA5BA"/>
		</linearGradient>
		<path class="st1" d="M362.5,763.05c0.2-0.95,20.05-95.97,47.92-189.77c56.98-191.79,90.91-378.59,103.69-378.59
			c12.77,0,46.71,186.8,103.69,378.59c27.87,93.8,47.72,188.82,47.91,189.77c0,0-30.18-95.39-58.02-189.09
			c-50.29-169.27-82.2-261.15-93.58-261.15c-11.38,0-43.29,91.88-93.58,261.16C392.69,667.68,362.5,763.05,362.5,763.05z"/>
	</g>
	<g>
		<linearGradient id="SVGID_3_" gradientUnits="userSpaceOnUse" x1="645.3455" y1="763.0547" x2="645.3455" y2="349.6341">
			<stop  offset="0" style="stop-color:#FFFFFF;stop-opacity:0"/>
			<stop  offset="1" style="stop-color:#7AA5BA"/>
		</linearGradient>
		<path class="st2" d="M535.07,763.05c0.14-0.69,14.59-69.81,34.86-138.04c41.45-139.5,66.13-275.38,75.42-275.38
			s33.97,135.88,75.42,275.38c20.27,68.23,34.71,137.35,34.85,138.04c0,0-21.96-69.38-42.2-137.54
			c-36.58-123.12-59.79-189.96-68.07-189.96s-31.49,66.83-68.07,189.96C557.02,693.68,535.07,763.05,535.07,763.05z"/>
	</g>
</g>
</svg>
